# Blender 3.5.0
# www.blender.org
g Flag
v 0.0 0.0 -0.125
v 0.0 1.5 -0.125
v 0.047835 0.0 -0.115485
v 0.047835 1.5 -0.115485
v 0.088388 0.0 -0.088388
v 0.088388 1.5 -0.088388
v 0.115485 0.0 -0.047835
v 0.115485 1.5 -0.047835
v 0.125 0.0 0.0
v 0.125 1.5 0.0
v 0.115485 0.0 0.047835
v 0.115485 1.5 0.047835
v 0.088388 0.0 0.088388
v 0.088388 1.5 0.088388
v 0.047835 0.0 0.115485
v 0.047835 1.5 0.115485
v 0.0 0.0 0.125
v 0.0 1.5 0.125
v -0.047835 0.0 0.115485
v -0.047835 1.5 0.115485
v -0.088388 0.0 0.088388
v -0.088388 1.5 0.088388
v -0.115485 0.0 0.047835
v -0.115485 1.5 0.047835
v -0.125 0.0 0.0
v -0.125 1.5 0.0
v -0.115485 0.0 -0.047835
v -0.115485 1.5 -0.047835
v -0.088388 0.0 -0.088388
v -0.088388 1.5 -0.088388
v -0.047835 0.0 -0.115485
v -0.047835 1.5 -0.115485
v 0.0 1.5 -0.216506
v 0.047835 1.841506 -0.115485
v 0.082853 1.75 -0.200026
v 0.095671 1.625 -0.23097
v 0.082853 1.5 -0.200026
v 0.047835 1.408494 -0.115485
v 0.088388 1.841506 -0.088388
v 0.153093 1.75 -0.153093
v 0.176777 1.625 -0.176777
v 0.153093 1.5 -0.153093
v 0.088388 1.408494 -0.088388
v 0.115485 1.841506 -0.047835
v 0.200026 1.75 -0.082853
v 0.23097 1.625 -0.095671
v 0.200026 1.5 -0.082853
v 0.115485 1.408494 -0.047835
v 0.125 1.841506 0.0
v 0.216506 1.75 0.0
v 0.25 1.625 0.0
v 0.216506 1.5 0.0
v 0.125 1.408494 0.0
v 0.115485 1.841506 0.047835
v 0.200026 1.75 0.082853
v 0.23097 1.625 0.095671
v 0.200026 1.5 0.082853
v 0.115485 1.408494 0.047835
v 0.088388 1.841506 0.088388
v 0.153093 1.75 0.153093
v 0.176777 1.625 0.176777
v 0.153093 1.5 0.153093
v 0.088388 1.408494 0.088388
v 0.047835 1.841506 0.115485
v 0.082853 1.75 0.200026
v 0.095671 1.625 0.23097
v 0.082853 1.5 0.200026
v 0.047835 1.408494 0.115485
v -0.0 1.841506 0.125
v -0.0 1.75 0.216506
v -0.0 1.625 0.25
v -0.0 1.5 0.216506
v -0.0 1.408494 0.125
v -0.047835 1.841506 0.115485
v -0.082853 1.75 0.200026
v -0.095671 1.625 0.23097
v -0.082853 1.5 0.200026
v -0.047835 1.408494 0.115485
v -0.088388 1.841506 0.088388
v -0.153093 1.75 0.153093
v -0.176777 1.625 0.176777
v -0.153093 1.5 0.153093
v -0.088388 1.408494 0.088388
v 0.0 1.875 0.0
v -0.115485 1.841506 0.047835
v -0.200026 1.75 0.082853
v -0.23097 1.625 0.095671
v -0.200026 1.5 0.082853
v -0.115485 1.408494 0.047835
v -0.125 1.841506 -0.0
v -0.216506 1.75 -0.0
v -0.25 1.625 -0.0
v -0.216506 1.5 -0.0
v -0.125 1.408494 -0.0
v -0.115485 1.841506 -0.047835
v -0.200026 1.75 -0.082853
v -0.23097 1.625 -0.095671
v -0.200026 1.5 -0.082853
v -0.115485 1.408494 -0.047835
v -0.088388 1.841506 -0.088388
v -0.153093 1.75 -0.153093
v -0.176777 1.625 -0.176777
v -0.153093 1.5 -0.153093
v -0.088388 1.408494 -0.088388
v -0.047835 1.841506 -0.115485
v -0.082853 1.75 -0.200026
v -0.095671 1.625 -0.23097
v -0.082853 1.5 -0.200026
v -0.047835 1.408494 -0.115485
v 0.0 1.841506 -0.125
v 0.0 1.75 -0.216506
v 0.0 1.625 -0.25
v 0.0 1.408494 -0.125
v 0.0 1.375 0.0
v 0.125 0.625 -0.0
v 0.9375 0.625 0.015625
v 0.125 1.375 0.0
v 0.9375 1.375 0.015625
v 0.9375 0.625 -0.015625
v 0.9375 1.375 -0.015625
vn -0.0 -0.0 -1.0
vn 0.3827 -0.0 -0.9239
vn 0.7071 -0.0 -0.7071
vn 0.9239 -0.0 -0.3827
vn 0.9239 -0.0 0.3827
vn 0.7071 -0.0 0.7071
vn 0.3827 -0.0 0.9239
vn -0.0 -0.0 1.0
vn -0.3827 -0.0 0.9239
vn -0.7071 -0.0 0.7071
vn -0.9239 -0.0 0.3827
vn -1.0 -0.0 -0.0
vn -0.9239 -0.0 -0.3827
vn -0.7071 -0.0 -0.7071
vn -0.3827 -0.0 -0.9239
vn -0.0 -1.0 -0.0
vn -0.0 -0.8521 -0.5235
vn 0.2003 -0.8521 -0.4836
vn -0.0 -0.4866 -0.8737
vn 0.3343 -0.4866 -0.8071
vn -0.0 0.4866 -0.8737
vn -0.0 0.8521 -0.5235
vn 0.2003 0.8521 -0.4836
vn 0.3343 0.4865 -0.8072
vn -0.0 1.0 -0.0
vn 0.3701 0.8521 -0.3701
vn 0.6178 0.4865 -0.6178
vn 0.6178 -0.4866 -0.6178
vn 0.3701 -0.8521 -0.3701
vn 0.8072 -0.4865 -0.3343
vn 0.4836 -0.8521 -0.2003
vn 0.8071 0.4865 -0.3343
vn 0.4836 0.8521 -0.2003
vn 0.8737 -0.4866 -0.0
vn 0.5235 -0.8521 -0.0
vn 0.8737 0.4866 -0.0
vn 1.0 -0.0 -0.0
vn 0.5235 0.8521 -0.0
vn 0.8071 -0.4866 0.3343
vn 0.4836 -0.8521 0.2003
vn 0.8071 0.4866 0.3343
vn 0.4836 0.8521 0.2003
vn 0.6178 -0.4866 0.6178
vn 0.3701 -0.8521 0.3701
vn 0.6178 0.4866 0.6178
vn 0.3701 0.8521 0.3701
vn 0.3343 0.4866 0.8071
vn 0.2003 0.8521 0.4836
vn 0.2003 -0.8521 0.4836
vn 0.3343 -0.4866 0.8071
vn -0.0 0.8521 0.5235
vn -0.0 -0.8521 0.5235
vn -0.0 -0.4866 0.8737
vn -0.0 0.4866 0.8737
vn -0.2003 -0.8521 0.4836
vn -0.3343 -0.4866 0.8071
vn -0.2003 0.8521 0.4836
vn -0.3343 0.4866 0.8071
vn -0.3701 -0.8521 0.3701
vn -0.6178 -0.4866 0.6178
vn -0.3701 0.8521 0.3701
vn -0.6178 0.4866 0.6178
vn -0.4836 -0.8521 0.2003
vn -0.8072 -0.4866 0.3343
vn -0.4836 0.8521 0.2003
vn -0.8072 0.4865 0.3343
vn -0.8737 -0.4866 -0.0
vn -0.5235 0.8521 -0.0
vn -0.8737 0.4866 -0.0
vn -0.5235 -0.8521 -0.0
vn -0.4836 0.8521 -0.2003
vn -0.8071 0.4866 -0.3343
vn -0.8071 -0.4866 -0.3343
vn -0.4836 -0.8521 -0.2003
vn -0.6178 -0.4866 -0.6178
vn -0.3701 -0.8521 -0.3701
vn -0.6178 0.4866 -0.6178
vn -0.3701 0.8521 -0.3701
vn -0.3343 -0.4866 -0.8071
vn -0.2003 -0.8521 -0.4836
vn -0.3343 0.4866 -0.8072
vn -0.2003 0.8521 -0.4836
vn -0.0192 -0.0 0.9998
vn -0.0192 -0.0 -0.9998
s 1
f 1//1 2//1 4//2 3//2
f 3//2 4//2 6//3 5//3
f 5//3 6//3 8//4 7//4
f 11//5 12//5 14//6 13//6
f 13//6 14//6 16//7 15//7
f 15//7 16//7 18//8 17//8
f 17//8 18//8 20//9 19//9
f 19//9 20//9 22//10 21//10
f 21//10 22//10 24//11 23//11
f 23//11 24//11 26//12 25//12
f 25//12 26//12 28//13 27//13
f 27//13 28//13 30//14 29//14
f 29//14 30//14 32//15 31//15
f 31//15 32//15 2//1 1//1
f 1//16 3//16 5//16 7//16 9//16 11//16 13//16 15//16 17//16 19//16 21//16 23//16 25//16 27//16 29//16 31//16
f 114//16 113//17 38//18
f 33//19 112//1 36//2 37//20
f 111//21 110//22 34//23 35//24
f 113//17 33//19 37//20 38//18
f 112//1 111//21 35//24 36//2
f 110//22 84//25 34//23
f 35//24 34//23 39//26 40//27
f 38//18 37//20 42//28 43//29
f 36//2 35//24 40//27 41//3
f 34//23 84//25 39//26
f 114//16 38//18 43//29
f 37//20 36//2 41//3 42//28
f 43//29 42//28 47//30 48//31
f 41//3 40//27 45//32 46//4
f 39//26 84//25 44//33
f 114//16 43//29 48//31
f 42//28 41//3 46//4 47//30
f 40//27 39//26 44//33 45//32
f 48//31 47//30 52//34 53//35
f 46//4 45//32 50//36 51//37
f 44//33 84//25 49//38
f 114//16 48//31 53//35
f 47//30 46//4 51//37 52//34
f 45//32 44//33 49//38 50//36
f 53//35 52//34 57//39 58//40
f 51//37 50//36 55//41 56//5
f 49//38 84//25 54//42
f 114//16 53//35 58//40
f 52//34 51//37 56//5 57//39
f 50//36 49//38 54//42 55//41
f 58//40 57//39 62//43 63//44
f 56//5 55//41 60//45 61//6
f 54//42 84//25 59//46
f 114//16 58//40 63//44
f 57//39 56//5 61//6 62//43
f 55//41 54//42 59//46 60//45
f 61//6 60//45 65//47 66//7
f 59//46 84//25 64//48
f 114//16 63//44 68//49
f 62//43 61//6 66//7 67//50
f 60//45 59//46 64//48 65//47
f 63//44 62//43 67//50 68//49
f 64//48 84//25 69//51
f 114//16 68//49 73//52
f 67//50 66//7 71//8 72//53
f 65//47 64//48 69//51 70//54
f 68//49 67//50 72//53 73//52
f 66//7 65//47 70//54 71//8
f 114//16 73//52 78//55
f 72//53 71//8 76//9 77//56
f 70//54 69//51 74//57 75//58
f 73//52 72//53 77//56 78//55
f 71//8 70//54 75//58 76//9
f 69//51 84//25 74//57
f 114//16 78//55 83//59
f 77//56 76//9 81//10 82//60
f 75//58 74//57 79//61 80//62
f 78//55 77//56 82//60 83//59
f 76//9 75//58 80//62 81//10
f 74//57 84//25 79//61
f 114//16 83//59 89//63
f 82//60 81//10 87//11 88//64
f 80//62 79//61 85//65 86//66
f 83//59 82//60 88//64 89//63
f 81//10 80//62 86//66 87//11
f 79//61 84//25 85//65
f 88//64 87//11 92//12 93//67
f 86//66 85//65 90//68 91//69
f 89//63 88//64 93//67 94//70
f 87//11 86//66 91//69 92//12
f 85//65 84//25 90//68
f 114//16 89//63 94//70
f 91//69 90//68 95//71 96//72
f 94//70 93//67 98//73 99//74
f 92//12 91//69 96//72 97//13
f 90//68 84//25 95//71
f 114//16 94//70 99//74
f 93//67 92//12 97//13 98//73
f 99//74 98//73 103//75 104//76
f 97//13 96//72 101//77 102//14
f 95//71 84//25 100//78
f 114//16 99//74 104//76
f 98//73 97//13 102//14 103//75
f 96//72 95//71 100//78 101//77
f 104//76 103//75 108//79 109//80
f 102//14 101//77 106//81 107//15
f 100//78 84//25 105//82
f 114//16 104//76 109//80
f 103//75 102//14 107//15 108//79
f 101//77 100//78 105//82 106//81
f 109//80 108//79 33//19 113//17
f 107//15 106//81 111//21 112//1
f 105//82 84//25 110//22
f 114//16 109//80 113//17
f 108//79 107//15 112//1 33//19
f 106//81 105//82 110//22 111//21
f 115//83 116//83 118//83 117//83
f 10//37 12//5 117//37
f 12//5 11//5 117//37
f 117//37 11//5 115//37
f 11//5 9//37 115//37
f 9//37 7//4 115//37
f 7//4 117//37 115//37
f 8//4 10//37 117//37
f 7//4 8//4 117//37
f 118//37 116//37 119//37 120//37
f 115//84 117//84 120//84 119//84
f 118//25 120//25 117//25
f 116//16 115//16 119//16
